<svg aria-hidden="true" style="position: absolute; width: 0; height: 0; overflow: hidden;" version="1.1" xmlns="http://www.w3.org/2000/svg" xmlns:xlink="http://www.w3.org/1999/xlink">
<defs>
<symbol id="icon-alert-circle" viewBox="0 0 24 24">
<path d="M23 12c0-3.037-1.232-5.789-3.222-7.778s-4.741-3.222-7.778-3.222-5.789 1.232-7.778 3.222-3.222 4.741-3.222 7.778 1.232 5.789 3.222 7.778 4.741 3.222 7.778 3.222 5.789-1.232 7.778-3.222 3.222-4.741 3.222-7.778zM21 12c0 2.486-1.006 4.734-2.636 6.364s-3.878 2.636-6.364 2.636-4.734-1.006-6.364-2.636-2.636-3.878-2.636-6.364 1.006-4.734 2.636-6.364 3.878-2.636 6.364-2.636 4.734 1.006 6.364 2.636 2.636 3.878 2.636 6.364zM11 8v4c0 0.552 0.448 1 1 1s1-0.448 1-1v-4c0-0.552-0.448-1-1-1s-1 0.448-1 1zM12 17c0.552 0 1-0.448 1-1s-0.448-1-1-1-1 0.448-1 1 0.448 1 1 1z"></path>
</symbol>
<symbol id="icon-alert-triangle" viewBox="0 0 24 24">
<path d="M11.148 4.374c0.073-0.123 0.185-0.242 0.334-0.332 0.236-0.143 0.506-0.178 0.756-0.116s0.474 0.216 0.614 0.448l8.466 14.133c0.070 0.12 0.119 0.268 0.128 0.434-0.015 0.368-0.119 0.591-0.283 0.759-0.18 0.184-0.427 0.298-0.693 0.301l-16.937-0.001c-0.152-0.001-0.321-0.041-0.481-0.134-0.239-0.138-0.399-0.359-0.466-0.607s-0.038-0.519 0.092-0.745zM9.432 3.346l-8.47 14.14c-0.422 0.731-0.506 1.55-0.308 2.29s0.68 1.408 1.398 1.822c0.464 0.268 0.976 0.4 1.475 0.402h16.943c0.839-0.009 1.587-0.354 2.123-0.902s0.864-1.303 0.855-2.131c-0.006-0.536-0.153-1.044-0.406-1.474l-8.474-14.147c-0.432-0.713-1.11-1.181-1.854-1.363s-1.561-0.081-2.269 0.349c-0.429 0.26-0.775 0.615-1.012 1.014zM11 9v4c0 0.552 0.448 1 1 1s1-0.448 1-1v-4c0-0.552-0.448-1-1-1s-1 0.448-1 1zM12 18c0.552 0 1-0.448 1-1s-0.448-1-1-1-1 0.448-1 1 0.448 1 1 1z"></path>
</symbol>
<symbol id="icon-arrow-left" viewBox="0 0 24 24">
<path d="M12.707 18.293l-5.293-5.293h11.586c0.552 0 1-0.448 1-1s-0.448-1-1-1h-11.586l5.293-5.293c0.391-0.391 0.391-1.024 0-1.414s-1.024-0.391-1.414 0l-7 7c-0.096 0.096-0.168 0.206-0.217 0.324-0.051 0.122-0.076 0.253-0.076 0.383 0 0.256 0.098 0.512 0.293 0.707l7 7c0.391 0.391 1.024 0.391 1.414 0s0.391-1.024 0-1.414z"></path>
</symbol>
<symbol id="icon-arrow-right" viewBox="0 0 24 24">
<path d="M11.293 5.707l5.293 5.293h-11.586c-0.552 0-1 0.448-1 1s0.448 1 1 1h11.586l-5.293 5.293c-0.391 0.391-0.391 1.024 0 1.414s1.024 0.391 1.414 0l7-7c0.092-0.092 0.166-0.202 0.217-0.324 0.101-0.245 0.101-0.521 0-0.766-0.049-0.118-0.121-0.228-0.217-0.324l-7-7c-0.391-0.391-1.024-0.391-1.414 0s-0.391 1.024 0 1.414z"></path>
</symbol>
<symbol id="icon-bookmark" viewBox="0 0 24 24">
<path d="M18.419 21.814c0.161 0.116 0.363 0.186 0.581 0.186 0.552 0 1-0.448 1-1v-16c0-0.828-0.337-1.58-0.879-2.121s-1.293-0.879-2.121-0.879h-10c-0.828 0-1.58 0.337-2.121 0.879s-0.879 1.293-0.879 2.121v16c-0.001 0.199 0.060 0.404 0.186 0.581 0.321 0.449 0.946 0.554 1.395 0.232l6.419-4.584zM18 19.057l-5.419-3.871c-0.355-0.254-0.819-0.242-1.162 0l-5.419 3.871v-14.057c0-0.276 0.111-0.525 0.293-0.707s0.431-0.293 0.707-0.293h10c0.276 0 0.525 0.111 0.707 0.293s0.293 0.431 0.293 0.707z"></path>
</symbol>

<symbol id="icon-bookmark-fill" viewBox="0 0 24 24">
<polygon points="18.419 21.814, 19.000 22.000, 20.000 21.000, 20.000 5.000, 19.121 2.879, 17.000 2.000, 7.000 2.000, 4.879 2.879, 4.000 5.000, 4.000 21.000, 4.186 21.581, 5.581 21.813, 12.000 17.229" />
</symbol>

<symbol id="icon-check" viewBox="0 0 24 24">
<path d="M19.293 5.293l-10.293 10.293-4.293-4.293c-0.391-0.391-1.024-0.391-1.414 0s-0.391 1.024 0 1.414l5 5c0.391 0.391 1.024 0.391 1.414 0l11-11c0.391-0.391 0.391-1.024 0-1.414s-1.024-0.391-1.414 0z"></path>
</symbol>
<symbol id="icon-clock" viewBox="0 0 24 24">
<path d="M23 12c0-3.037-1.232-5.789-3.222-7.778s-4.741-3.222-7.778-3.222-5.789 1.232-7.778 3.222-3.222 4.741-3.222 7.778 1.232 5.789 3.222 7.778 4.741 3.222 7.778 3.222 5.789-1.232 7.778-3.222 3.222-4.741 3.222-7.778zM21 12c0 2.486-1.006 4.734-2.636 6.364s-3.878 2.636-6.364 2.636-4.734-1.006-6.364-2.636-2.636-3.878-2.636-6.364 1.006-4.734 2.636-6.364 3.878-2.636 6.364-2.636 4.734 1.006 6.364 2.636 2.636 3.878 2.636 6.364zM11 6v6c0 0.389 0.222 0.727 0.553 0.894l4 2c0.494 0.247 1.095 0.047 1.342-0.447s0.047-1.095-0.447-1.342l-3.448-1.723v-5.382c0-0.552-0.448-1-1-1s-1 0.448-1 1z"></path>
</symbol>
<symbol id="icon-edit" viewBox="0 0 24 24">
<path d="M11 3h-7c-0.828 0-1.58 0.337-2.121 0.879s-0.879 1.293-0.879 2.121v14c0 0.828 0.337 1.58 0.879 2.121s1.293 0.879 2.121 0.879h14c0.828 0 1.58-0.337 2.121-0.879s0.879-1.293 0.879-2.121v-7c0-0.552-0.448-1-1-1s-1 0.448-1 1v7c0 0.276-0.111 0.525-0.293 0.707s-0.431 0.293-0.707 0.293h-14c-0.276 0-0.525-0.111-0.707-0.293s-0.293-0.431-0.293-0.707v-14c0-0.276 0.111-0.525 0.293-0.707s0.431-0.293 0.707-0.293h7c0.552 0 1-0.448 1-1s-0.448-1-1-1zM17.793 1.793l-9.5 9.5c-0.122 0.121-0.217 0.28-0.263 0.465l-1 4c-0.039 0.15-0.042 0.318 0 0.485 0.134 0.536 0.677 0.862 1.213 0.728l4-1c0.167-0.041 0.33-0.129 0.465-0.263l9.5-9.5c0.609-0.609 0.914-1.41 0.914-2.207s-0.305-1.598-0.914-2.207-1.411-0.915-2.208-0.915-1.598 0.305-2.207 0.914zM19.207 3.207c0.219-0.219 0.504-0.328 0.793-0.328s0.574 0.109 0.793 0.328 0.328 0.504 0.328 0.793-0.109 0.574-0.328 0.793l-9.304 9.304-2.114 0.529 0.529-2.114z"></path>
</symbol>
<symbol id="icon-loader" viewBox="0 0 24 24">
<path d="M11 2v4c0 0.552 0.448 1 1 1s1-0.448 1-1v-4c0-0.552-0.448-1-1-1s-1 0.448-1 1zM11 18v4c0 0.552 0.448 1 1 1s1-0.448 1-1v-4c0-0.552-0.448-1-1-1s-1 0.448-1 1zM4.223 5.637l2.83 2.83c0.391 0.391 1.024 0.391 1.414 0s0.391-1.024 0-1.414l-2.83-2.83c-0.391-0.391-1.024-0.391-1.414 0s-0.391 1.024 0 1.414zM15.533 16.947l2.83 2.83c0.391 0.391 1.024 0.391 1.414 0s0.391-1.024 0-1.414l-2.83-2.83c-0.391-0.391-1.024-0.391-1.414 0s-0.391 1.024 0 1.414zM2 13h4c0.552 0 1-0.448 1-1s-0.448-1-1-1h-4c-0.552 0-1 0.448-1 1s0.448 1 1 1zM18 13h4c0.552 0 1-0.448 1-1s-0.448-1-1-1h-4c-0.552 0-1 0.448-1 1s0.448 1 1 1zM5.637 19.777l2.83-2.83c0.391-0.391 0.391-1.024 0-1.414s-1.024-0.391-1.414 0l-2.83 2.83c-0.391 0.391-0.391 1.024 0 1.414s1.024 0.391 1.414 0zM16.947 8.467l2.83-2.83c0.391-0.391 0.391-1.024 0-1.414s-1.024-0.391-1.414 0l-2.83 2.83c-0.391 0.391-0.391 1.024 0 1.414s1.024 0.391 1.414 0z"></path>
</symbol>
<symbol id="icon-minus-circle" viewBox="0 0 24 24">
<path d="M23 12c0-3.037-1.232-5.789-3.222-7.778s-4.741-3.222-7.778-3.222-5.789 1.232-7.778 3.222-3.222 4.741-3.222 7.778 1.232 5.789 3.222 7.778 4.741 3.222 7.778 3.222 5.789-1.232 7.778-3.222 3.222-4.741 3.222-7.778zM21 12c0 2.486-1.006 4.734-2.636 6.364s-3.878 2.636-6.364 2.636-4.734-1.006-6.364-2.636-2.636-3.878-2.636-6.364 1.006-4.734 2.636-6.364 3.878-2.636 6.364-2.636 4.734 1.006 6.364 2.636 2.636 3.878 2.636 6.364zM8 13h8c0.552 0 1-0.448 1-1s-0.448-1-1-1h-8c-0.552 0-1 0.448-1 1s0.448 1 1 1z"></path>
</symbol>
<symbol id="icon-plus-circle" viewBox="0 0 24 24">
<path d="M23 12c0-3.037-1.232-5.789-3.222-7.778s-4.741-3.222-7.778-3.222-5.789 1.232-7.778 3.222-3.222 4.741-3.222 7.778 1.232 5.789 3.222 7.778 4.741 3.222 7.778 3.222 5.789-1.232 7.778-3.222 3.222-4.741 3.222-7.778zM21 12c0 2.486-1.006 4.734-2.636 6.364s-3.878 2.636-6.364 2.636-4.734-1.006-6.364-2.636-2.636-3.878-2.636-6.364 1.006-4.734 2.636-6.364 3.878-2.636 6.364-2.636 4.734 1.006 6.364 2.636 2.636 3.878 2.636 6.364zM8 13h3v3c0 0.552 0.448 1 1 1s1-0.448 1-1v-3h3c0.552 0 1-0.448 1-1s-0.448-1-1-1h-3v-3c0-0.552-0.448-1-1-1s-1 0.448-1 1v3h-3c-0.552 0-1 0.448-1 1s0.448 1 1 1z"></path>
</symbol>
<symbol id="icon-search" viewBox="0 0 24 24">
<path d="M16.041 15.856c-0.034 0.026-0.067 0.055-0.099 0.087s-0.060 0.064-0.087 0.099c-1.258 1.213-2.969 1.958-4.855 1.958-1.933 0-3.682-0.782-4.95-2.050s-2.050-3.017-2.050-4.95 0.782-3.682 2.050-4.95 3.017-2.050 4.95-2.050 3.682 0.782 4.95 2.050 2.050 3.017 2.050 4.95c0 1.886-0.745 3.597-1.959 4.856zM21.707 20.293l-3.675-3.675c1.231-1.54 1.968-3.493 1.968-5.618 0-2.485-1.008-4.736-2.636-6.364s-3.879-2.636-6.364-2.636-4.736 1.008-6.364 2.636-2.636 3.879-2.636 6.364 1.008 4.736 2.636 6.364 3.879 2.636 6.364 2.636c2.125 0 4.078-0.737 5.618-1.968l3.675 3.675c0.391 0.391 1.024 0.391 1.414 0s0.391-1.024 0-1.414z"></path>
</symbol>
<symbol id="icon-send" viewBox="0 0 24 24">
<path d="M22.963 2.269c0.043-0.151 0.050-0.314 0.015-0.476-0.024-0.113-0.068-0.224-0.131-0.325-0.064-0.102-0.145-0.19-0.238-0.262-0.117-0.090-0.249-0.15-0.386-0.181s-0.282-0.034-0.426-0.004c-0.042 0.009-0.085 0.021-0.126 0.035l-0.021 0.007-19.98 6.993c-0.252 0.088-0.467 0.276-0.584 0.538-0.224 0.505 0.003 1.096 0.508 1.32l8.649 3.844 3.844 8.649c0.108 0.243 0.313 0.443 0.583 0.538 0.521 0.182 1.092-0.092 1.274-0.614l6.993-19.979c0.010-0.027 0.019-0.054 0.027-0.082zM10.779 11.807l-6.068-2.696 13.483-4.72zM19.609 5.806l-4.72 13.483-2.696-6.068z"></path>
</symbol>
<symbol id="icon-smile" viewBox="0 0 24 24">
<path d="M23 12c0-3.037-1.232-5.789-3.222-7.778s-4.741-3.222-7.778-3.222-5.789 1.232-7.778 3.222-3.222 4.741-3.222 7.778 1.232 5.789 3.222 7.778 4.741 3.222 7.778 3.222 5.789-1.232 7.778-3.222 3.222-4.741 3.222-7.778zM21 12c0 2.486-1.006 4.734-2.636 6.364s-3.878 2.636-6.364 2.636-4.734-1.006-6.364-2.636-2.636-3.878-2.636-6.364 1.006-4.734 2.636-6.364 3.878-2.636 6.364-2.636 4.734 1.006 6.364 2.636 2.636 3.878 2.636 6.364zM7.2 14.6c0 0 0.131 0.173 0.331 0.383 0.145 0.153 0.338 0.341 0.577 0.54 0.337 0.281 0.772 0.59 1.297 0.853 0.705 0.352 1.579 0.624 2.595 0.624s1.89-0.272 2.595-0.624c0.525-0.263 0.96-0.572 1.297-0.853 0.239-0.199 0.432-0.387 0.577-0.54 0.2-0.21 0.331-0.383 0.331-0.383 0.331-0.442 0.242-1.069-0.2-1.4s-1.069-0.242-1.4 0.2c-0.041 0.050-0.181 0.206-0.181 0.206-0.1 0.105-0.237 0.239-0.408 0.382-0.243 0.203-0.549 0.419-0.91 0.6-0.48 0.239-1.050 0.412-1.701 0.412s-1.221-0.173-1.701-0.413c-0.36-0.18-0.667-0.397-0.91-0.6-0.171-0.143-0.308-0.277-0.408-0.382-0.14-0.155-0.181-0.205-0.181-0.205-0.331-0.442-0.958-0.531-1.4-0.2s-0.531 0.958-0.2 1.4zM9 10c0.552 0 1-0.448 1-1s-0.448-1-1-1-1 0.448-1 1 0.448 1 1 1zM15 10c0.552 0 1-0.448 1-1s-0.448-1-1-1-1 0.448-1 1 0.448 1 1 1z"></path>
</symbol>
<symbol id="icon-user" viewBox="0 0 24 24">
<path d="M21 21v-2c0-1.38-0.561-2.632-1.464-3.536s-2.156-1.464-3.536-1.464h-8c-1.38 0-2.632 0.561-3.536 1.464s-1.464 2.156-1.464 3.536v2c0 0.552 0.448 1 1 1s1-0.448 1-1v-2c0-0.829 0.335-1.577 0.879-2.121s1.292-0.879 2.121-0.879h8c0.829 0 1.577 0.335 2.121 0.879s0.879 1.292 0.879 2.121v2c0 0.552 0.448 1 1 1s1-0.448 1-1zM17 7c0-1.38-0.561-2.632-1.464-3.536s-2.156-1.464-3.536-1.464-2.632 0.561-3.536 1.464-1.464 2.156-1.464 3.536 0.561 2.632 1.464 3.536 2.156 1.464 3.536 1.464 2.632-0.561 3.536-1.464 1.464-2.156 1.464-3.536zM15 7c0 0.829-0.335 1.577-0.879 2.121s-1.292 0.879-2.121 0.879-1.577-0.335-2.121-0.879-0.879-1.292-0.879-2.121 0.335-1.577 0.879-2.121 1.292-0.879 2.121-0.879 1.577 0.335 2.121 0.879 0.879 1.292 0.879 2.121z"></path>
</symbol>
<symbol id="icon-upload-cloud" viewBox="0 0 24 24">
<path d="M11 14.414v6.586c0 0.552 0.448 1 1 1s1-0.448 1-1v-6.586l2.293 2.293c0.391 0.391 1.024 0.391 1.414 0s0.391-1.024 0-1.414l-4-4c-0.092-0.092-0.202-0.166-0.324-0.217s-0.253-0.076-0.383-0.076c-0.256 0-0.512 0.098-0.707 0.293l-4 4c-0.391 0.391-0.391 1.024 0 1.414s1.024 0.391 1.414 0zM20.869 19.268c1.454-0.793 2.451-2.102 2.884-3.574s0.305-3.112-0.488-4.566c-0.679-1.245-1.737-2.155-2.959-2.663-0.724-0.301-1.505-0.46-2.299-0.465h-0.527c-0.725-2.057-2.144-3.708-3.917-4.752-1.983-1.168-4.415-1.581-6.821-0.959s-4.333 2.162-5.502 4.145-1.581 4.415-0.959 6.821c0.372 1.437 1.073 2.709 1.975 3.713 0.369 0.411 1.002 0.444 1.412 0.075s0.444-1.002 0.075-1.412c-0.688-0.765-1.235-1.75-1.526-2.877-0.484-1.872-0.164-3.761 0.746-5.305s2.407-2.74 4.279-3.224 3.761-0.164 5.305 0.746 2.74 2.407 3.224 4.279c0.116 0.435 0.506 0.75 0.969 0.75h1.253c0.536 0.004 1.061 0.111 1.545 0.312 0.815 0.339 1.517 0.943 1.97 1.773 0.529 0.97 0.615 2.061 0.325 3.044s-0.953 1.854-1.923 2.382c-0.485 0.264-0.664 0.872-0.399 1.357s0.872 0.664 1.357 0.399z"></path>
</symbol>
<symbol id="icon-users" viewBox="0 0 24 24">
<path d="M18 21v-2c0-1.38-0.561-2.632-1.464-3.536s-2.156-1.464-3.536-1.464h-8c-1.38 0-2.632 0.561-3.536 1.464s-1.464 2.156-1.464 3.536v2c0 0.552 0.448 1 1 1s1-0.448 1-1v-2c0-0.829 0.335-1.577 0.879-2.121s1.292-0.879 2.121-0.879h8c0.829 0 1.577 0.335 2.121 0.879s0.879 1.292 0.879 2.121v2c0 0.552 0.448 1 1 1s1-0.448 1-1zM14 7c0-1.38-0.561-2.632-1.464-3.536s-2.156-1.464-3.536-1.464-2.632 0.561-3.536 1.464-1.464 2.156-1.464 3.536 0.561 2.632 1.464 3.536 2.156 1.464 3.536 1.464 2.632-0.561 3.536-1.464 1.464-2.156 1.464-3.536zM12 7c0 0.829-0.335 1.577-0.879 2.121s-1.292 0.879-2.121 0.879-1.577-0.335-2.121-0.879-0.879-1.292-0.879-2.121 0.335-1.577 0.879-2.121 1.292-0.879 2.121-0.879 1.577 0.335 2.121 0.879 0.879 1.292 0.879 2.121zM24 21v-2c-0.001-1.245-0.457-2.385-1.215-3.261-0.652-0.753-1.528-1.311-2.529-1.576-0.534-0.141-1.081 0.177-1.222 0.711s0.177 1.081 0.711 1.222c0.607 0.161 1.136 0.498 1.528 0.952 0.454 0.526 0.726 1.206 0.727 1.952v2c0 0.552 0.448 1 1 1s1-0.448 1-1zM15.752 4.099c0.803 0.206 1.445 0.715 1.837 1.377s0.531 1.47 0.325 2.273c-0.176 0.688-0.575 1.256-1.105 1.652-0.314 0.235-0.675 0.409-1.063 0.511-0.534 0.14-0.854 0.687-0.713 1.221s0.687 0.854 1.221 0.713c0.637-0.167 1.232-0.455 1.752-0.844 0.884-0.66 1.552-1.613 1.845-2.758 0.342-1.337 0.11-2.689-0.542-3.788s-1.725-1.953-3.062-2.296c-0.535-0.137-1.080 0.186-1.217 0.721s0.186 1.080 0.721 1.217z"></path>
</symbol>
<symbol id="icon-hotel" viewBox="0 0 24 24">
<g>
<path d="M 14.039062 2.078125 C 14.039062 0.929688 13.125 0 12 0 C 10.875 0 9.960938 0.929688 9.960938 2.078125 C 9.960938 3.222656 10.875 4.152344 12 4.152344 C 13.125 4.152344 14.039062 3.222656 14.039062 2.078125 Z M 14.039062 2.078125 "/>
<path d="M 17.90625 8.269531 L 19.335938 8.269531 L 14.628906 3.640625 C 14.457031 3.921875 14.25 4.191406 13.984375 4.417969 Z M 17.90625 8.269531 "/>
<path d="M 10.019531 4.417969 C 9.769531 4.1875 9.546875 3.921875 9.375 3.640625 L 4.667969 8.269531 L 6.097656 8.269531 Z M 10.019531 4.417969 "/>
<path d="M 9.085938 16.636719 C 9.085938 15.738281 8.796875 15.007812 8.4375 15.007812 C 8.082031 15.007812 7.792969 15.738281 7.792969 16.636719 C 7.792969 17.539062 8.082031 18.269531 8.4375 18.269531 C 8.796875 18.269531 9.085938 17.539062 9.085938 16.636719 Z M 9.085938 16.636719 "/>
<path d="M 0 9.277344 L 0 24 L 24 24 L 24 9.277344 Z M 6.277344 18.679688 C 6.277344 18.90625 6.078125 19.085938 5.832031 19.085938 C 5.589844 19.085938 5.386719 18.90625 5.386719 18.679688 L 5.386719 17.042969 L 4.1875 17.042969 L 4.1875 18.675781 C 4.1875 18.902344 3.988281 19.082031 3.742188 19.082031 C 3.496094 19.082031 3.296875 18.902344 3.296875 18.675781 L 3.296875 14.597656 C 3.296875 14.371094 3.496094 14.1875 3.742188 14.1875 C 3.988281 14.1875 4.1875 14.371094 4.1875 14.597656 L 4.1875 16.226562 L 5.386719 16.226562 L 5.386719 14.597656 C 5.386719 14.371094 5.589844 14.1875 5.832031 14.1875 C 6.078125 14.1875 6.277344 14.371094 6.277344 14.597656 Z M 8.4375 19.085938 C 7.59375 19.085938 6.90625 17.988281 6.90625 16.636719 C 6.90625 15.285156 7.59375 14.1875 8.4375 14.1875 C 9.285156 14.1875 9.972656 15.285156 9.972656 16.636719 C 9.972656 17.988281 9.285156 19.085938 8.4375 19.085938 Z M 13.132812 15.007812 L 12.527344 15.007812 L 12.527344 18.679688 C 12.527344 18.90625 12.328125 19.085938 12.082031 19.085938 C 11.839844 19.085938 11.636719 18.90625 11.636719 18.679688 L 11.636719 15.007812 L 11.035156 15.007812 C 10.789062 15.007812 10.589844 14.824219 10.589844 14.601562 C 10.589844 14.375 10.789062 14.195312 11.035156 14.195312 L 13.125 14.195312 C 13.371094 14.195312 13.570312 14.375 13.570312 14.601562 C 13.570312 14.824219 13.375 15.007812 13.132812 15.007812 Z M 16.609375 16.230469 C 16.855469 16.230469 17.054688 16.414062 17.054688 16.636719 C 17.054688 16.863281 16.855469 17.042969 16.609375 17.042969 L 15.300781 17.042969 L 15.300781 18.269531 L 16.609375 18.269531 C 16.855469 18.269531 17.054688 18.449219 17.054688 18.675781 C 17.054688 18.902344 16.855469 19.082031 16.609375 19.082031 L 14.855469 19.082031 C 14.609375 19.082031 14.410156 18.902344 14.410156 18.675781 L 14.410156 14.597656 C 14.410156 14.371094 14.609375 14.1875 14.855469 14.1875 L 16.609375 14.1875 C 16.855469 14.1875 17.054688 14.371094 17.054688 14.597656 C 17.054688 14.820312 16.855469 15.003906 16.609375 15.003906 L 15.300781 15.003906 L 15.300781 16.226562 L 16.609375 16.226562 Z M 20.253906 19.085938 L 18.5 19.085938 C 18.253906 19.085938 18.054688 18.90625 18.054688 18.679688 L 18.054688 14.597656 C 18.054688 14.371094 18.253906 14.1875 18.5 14.1875 C 18.746094 14.1875 18.945312 14.371094 18.945312 14.597656 L 18.945312 18.269531 L 20.253906 18.269531 C 20.496094 18.269531 20.699219 18.449219 20.699219 18.675781 C 20.699219 18.902344 20.496094 19.085938 20.253906 19.085938 Z M 20.253906 19.085938 "/>
</g>

</symbol>

<symbol id="icon-recepies" viewBox="0 0 24 24">
<g >
<path  d="M 5.296875 0 C 3.421875 0 1.898438 1.523438 1.898438 3.398438 L 1.898438 20.601562 C 1.898438 22.476562 3.421875 24 5.296875 24 L 21.339844 24 C 21.761719 24 22.101562 23.660156 22.101562 23.238281 L 22.101562 0.761719 C 22.101562 0.339844 21.761719 0 21.339844 0 Z M 5.296875 1.523438 L 20.578125 1.523438 L 20.578125 17.203125 L 5.296875 17.203125 C 4.605469 17.203125 3.960938 17.410156 3.421875 17.769531 L 3.421875 3.398438 C 3.421875 2.363281 4.265625 1.523438 5.296875 1.523438 Z M 20.578125 22.476562 L 5.296875 22.476562 C 4.265625 22.476562 3.421875 21.636719 3.421875 20.601562 C 3.421875 19.566406 4.261719 18.726562 5.296875 18.726562 L 20.578125 18.726562 L 20.578125 19.839844 L 8.585938 19.839844 C 8.167969 19.839844 7.824219 20.179688 7.824219 20.601562 C 7.824219 21.023438 8.167969 21.363281 8.585938 21.363281 L 20.578125 21.363281 Z M 20.578125 22.476562 "/>
<path  d="M 8.953125 10.683594 L 8.953125 13.570312 C 8.953125 13.988281 9.296875 14.332031 9.714844 14.332031 L 14.285156 14.332031 C 14.703125 14.332031 15.046875 13.988281 15.046875 13.570312 L 15.046875 10.683594 C 16.050781 10.28125 16.75 9.296875 16.75 8.167969 C 16.75 6.714844 15.597656 5.523438 14.160156 5.457031 C 13.652344 4.785156 12.863281 4.386719 12 4.386719 C 11.136719 4.386719 10.347656 4.785156 9.839844 5.457031 C 8.402344 5.523438 7.25 6.714844 7.25 8.167969 C 7.25 9.296875 7.949219 10.28125 8.953125 10.683594 Z M 9.964844 6.976562 C 10.023438 6.976562 10.082031 6.980469 10.140625 6.988281 C 10.464844 7.039062 10.785156 6.871094 10.933594 6.574219 C 11.132812 6.164062 11.542969 5.910156 12 5.910156 C 12.457031 5.910156 12.867188 6.164062 13.066406 6.574219 C 13.214844 6.871094 13.535156 7.039062 13.863281 6.988281 C 13.917969 6.980469 13.976562 6.976562 14.035156 6.976562 C 14.691406 6.976562 15.226562 7.511719 15.226562 8.167969 C 15.226562 8.765625 14.78125 9.273438 14.1875 9.347656 C 13.808594 9.394531 13.523438 9.71875 13.523438 10.101562 L 13.523438 12.808594 L 10.476562 12.808594 L 10.476562 10.152344 C 10.503906 9.75 10.210938 9.398438 9.8125 9.347656 C 9.222656 9.273438 8.773438 8.765625 8.773438 8.167969 C 8.773438 7.511719 9.308594 6.976562 9.964844 6.976562 Z M 9.964844 6.976562 "/>
</g>

</symbol>

<symbol id="icon-email" viewBox="0 0 24 24">
<g >
<path style=" stroke:none;fill-rule:nonzero;fill:rgb(11.372549%,11.372549%,10.588235%);fill-opacity:1;" d="M 20.035156 20.875 L 3.941406 20.875 C 1.839844 20.875 0.132812 19.167969 0.132812 17.066406 L 0.132812 6.90625 C 0.132812 4.808594 1.839844 3.097656 3.941406 3.097656 L 20.035156 3.097656 C 22.132812 3.097656 23.839844 4.808594 23.839844 6.90625 L 23.839844 17.066406 C 23.839844 19.167969 22.132812 20.875 20.035156 20.875 Z M 3.941406 4.210938 C 2.453125 4.210938 1.246094 5.421875 1.246094 6.90625 L 1.246094 17.066406 C 1.246094 18.550781 2.453125 19.761719 3.941406 19.761719 L 20.035156 19.761719 C 21.519531 19.761719 22.726562 18.550781 22.726562 17.066406 L 22.726562 6.90625 C 22.726562 5.421875 21.519531 4.210938 20.035156 4.210938 Z M 3.941406 4.210938 "/>
<path style=" stroke:none;fill-rule:nonzero;fill:rgb(11.372549%,11.372549%,10.588235%);fill-opacity:1;" d="M 3.042969 6.960938 C 5.886719 9.734375 8.734375 12.507812 11.578125 15.28125 C 12.109375 15.796875 12.925781 14.984375 12.394531 14.464844 C 9.546875 11.691406 6.699219 8.917969 3.855469 6.144531 C 3.324219 5.628906 2.511719 6.441406 3.042969 6.960938 Z M 3.042969 6.960938 "/>
<path style=" stroke:none;fill-rule:nonzero;fill:rgb(11.372549%,11.372549%,10.588235%);fill-opacity:1;" d="M 12.394531 15.28125 C 15.238281 12.507812 18.085938 9.734375 20.933594 6.960938 C 21.464844 6.441406 20.648438 5.628906 20.117188 6.144531 C 17.273438 8.917969 14.425781 11.691406 11.578125 14.464844 C 11.046875 14.984375 11.863281 15.796875 12.394531 15.28125 Z M 12.394531 15.28125 "/>
<path style=" stroke:none;fill-rule:nonzero;fill:rgb(11.372549%,11.372549%,10.588235%);fill-opacity:1;" d="M 20.902344 17.242188 C 19.007812 15.445312 17.113281 13.652344 15.21875 11.855469 C 14.679688 11.34375 13.867188 12.15625 14.40625 12.667969 C 16.300781 14.464844 18.191406 16.261719 20.085938 18.054688 C 20.625 18.566406 21.4375 17.753906 20.902344 17.242188 Z M 20.902344 17.242188 "/>
<path style=" stroke:none;fill-rule:nonzero;fill:rgb(11.372549%,11.372549%,10.588235%);fill-opacity:1;" d="M 3.9375 18.054688 C 5.832031 16.261719 7.726562 14.464844 9.621094 12.667969 C 10.15625 12.15625 9.34375 11.34375 8.804688 11.855469 C 6.910156 13.652344 5.019531 15.445312 3.125 17.242188 C 2.585938 17.753906 3.398438 18.566406 3.9375 18.054688 Z M 3.9375 18.054688 "/>
</g>
</symbol>
<symbol id="icon-location" viewBox="0 0 24 24">
<g >
<path style=" stroke:none;fill-rule:nonzero;fill:rgb(1.568627%,85.882353%,47.058824%);fill-opacity:1;" d="M 19.910156 22.078125 C 19.910156 21.105469 16.363281 20.316406 11.984375 20.316406 C 7.609375 20.316406 4.0625 21.105469 4.0625 22.078125 C 4.0625 23.050781 7.609375 23.839844 11.984375 23.839844 C 16.363281 23.839844 19.910156 23.050781 19.910156 22.078125 Z M 19.910156 22.078125 "/>
<path style=" stroke:none;fill-rule:nonzero;fill:rgb(1.568627%,53.333333%,85.882353%);fill-opacity:1;" d="M 11.988281 22.074219 C 11.640625 22.074219 11.320312 21.890625 11.148438 21.59375 L 10.078125 19.785156 C 7.882812 16.074219 5.808594 12.570312 5.101562 11.148438 C 4.585938 10.09375 4.328125 8.964844 4.328125 7.792969 C 4.328125 3.566406 7.761719 0.132812 11.988281 0.132812 C 16.210938 0.132812 19.644531 3.566406 19.644531 7.792969 C 19.644531 8.964844 19.386719 10.09375 18.875 11.140625 C 18.871094 11.152344 18.863281 11.167969 18.855469 11.179688 C 18.136719 12.621094 16.074219 16.101562 13.894531 19.789062 L 12.828125 21.59375 C 12.652344 21.890625 12.332031 22.074219 11.988281 22.074219 Z M 11.988281 22.074219 "/>
<path style=" stroke:none;fill-rule:nonzero;fill:rgb(100%,100%,100%);fill-opacity:1;" d="M 11.988281 11.269531 C 9.921875 11.269531 8.238281 9.585938 8.238281 7.523438 C 8.238281 5.457031 9.921875 3.773438 11.988281 3.773438 C 14.050781 3.773438 15.734375 5.457031 15.734375 7.523438 C 15.734375 9.585938 14.050781 11.269531 11.988281 11.269531 Z M 11.988281 11.269531 "/>
</g>
</symbol>
</defs>
</svg>
